# xmcd
#
# Track frame offsets:
#       150
#       15204
#       31259
#       48055
#       62516
#       84131
#       97252
#       117562
#       134098
#       149194
#       167957
#
# Disc length: 2469 seconds
#
# Revision: 0
# Processed by: cddbd v1.5.1PL2 Copyright (c) Steve Scherf et al.
# Submitted via: WaveLab 4.01
#
DISCID=9509a30b
DTITLE=Bryan Cole - Wide Open Road
DYEAR=1900
DGENRE=
TTITLE0=It All Comes Back To Me
TTITLE1=Mile A Minute 
TTITLE2=Mercy Of You
TTITLE3=Savin' It Up For Saturday Night
TTITLE4=You Know Why
TTITLE5=Mobile Home
TTITLE6=Tin Roof Sunday
TTITLE7=If Only
TTITLE8=Red Beans and Rice
TTITLE9=Caught In The Undertow
TTITLE10=Talkin' Dirty
EXTD=
EXTT0=
EXTT1=
EXTT2=
EXTT3=
EXTT4=
EXTT5=
EXTT6=
EXTT7=
EXTT8=
EXTT9=
EXTT10=
PLAYORDER=
